<svg version="1.1" xmlns="http://www.w3.org/2000/svg" viewBox="-292.2 -999.2 1384.9 1561.9"><desc>Created with Snap</desc><defs></defs><g><rect x="-292.2" y="-999.2" width="1384.9" height="1561.9" fill="#000000" style=""></rect><g><g transform="matrix(0.5,0,0,-0.5,0,0)"><path d="M503 1133Q503 1123 500 1115Q498 1108 495 1100Q478 1060 459 1021Q440 983 429 940Q392 790 373 637Q355 484 349 329Q414 315 465 283Q517 251 566 207Q661 247 738 307Q816 367 871 445Q926 523 956 618Q986 713 986 821Q986 881 968 943Q951 1006 919 1065Q888 1124 844 1176Q801 1228 748 1266Q695 1305 634 1327Q574 1350 509 1350Q447 1350 380 1327Q314 1304 259 1262Q204 1221 169 1163Q134 1105 134 1036Q134 1009 140 987Q147 966 154 948Q162 930 168 914Q175 899 175 883Q175 854 155 834Q136 815 108 815Q82 815 67 829Q52 843 43 864Q35 885 32 908Q30 932 30 950Q30 1038 72 1109Q114 1180 180 1237Q222 1273 264 1300Q307 1327 352 1346Q398 1365 447 1374Q496 1384 552 1384Q632 1384 706 1364Q781 1344 846 1307Q912 1270 966 1218Q1021 1166 1060 1102Q1099 1038 1120 963Q1142 889 1142 807Q1142 686 1098 584Q1055 482 981 401Q907 321 809 262Q711 204 603 171Q614 160 624 150Q635 140 646 129Q706 70 765 4Q825 -62 888 -127Q951 -192 1018 -252Q1085 -311 1160 -357Q1235 -402 1319 -429Q1404 -456 1501 -456Q1518 -456 1533 -455Q1549 -453 1566 -448L1571 -468Q1527 -491 1478 -501Q1429 -511 1378 -511Q1272 -511 1185 -490Q1098 -468 1024 -429Q950 -390 887 -336Q824 -281 766 -216Q708 -151 652 -78Q597 -4 538 74Q525 91 512 108Q500 126 488 143Q452 137 416 133Q381 130 346 129Q346 7 352 -112Q358 -231 366 -346L347 -352Q306 -246 284 -120Q263 6 252 134Q226 138 201 145Q176 152 155 164Q135 177 122 195Q110 214 110 240Q110 264 122 281Q134 299 153 310Q173 322 196 328Q219 335 242 337Q241 365 241 392Q241 420 241 446Q241 487 241 548Q242 609 246 678Q251 747 261 818Q271 890 288 953Q306 1016 333 1065Q361 1114 401 1137Q416 1146 434 1153Q452 1161 472 1161Q503 1161 503 1133ZM145 236Q145 222 154 211Q163 200 178 191Q193 183 211 177Q230 171 250 167Q248 201 246 234Q245 268 243 301Q226 301 208 299Q191 297 177 290Q163 283 154 270Q145 258 145 236ZM346 158Q377 158 407 162Q437 166 466 173Q441 207 412 235Q384 264 347 281Q346 250 346 219Q346 189 346 158Z" fill="#ffffff" style=""></path></g></g></g></svg>